<svg width="464" height="67" viewBox="0 0 464 67" fill="none" xmlns="http://www.w3.org/2000/svg">
<path d="M33.5111 66.9995L18.0444 38.6534H7.73333V66.9995C2.57778 66.9995 0 64.4226 0 60.5572V2.57648H20.6222C25.5097 2.57648 29.6444 2.57648 33.2224 3.91648C36.6251 5.58633 39.6772 7.84371 41.3476 10.6886C43.018 13.5336 43.8532 16.7805 43.8532 20.4294C43.8532 24.8823 42.554 28.8095 39.9556 32.2111C37.419 35.6126 33.4905 37.5402 28.3556 38.6534L43.8222 66.9995H33.5111ZM7.73333 30.9226C7.73333 30.9226 18.0444 30.9226 23.2 30.9226C28.3556 30.9226 29.6444 29.6342 30.9333 28.3457C32.2222 27.0572 33.5111 24.4803 33.5111 20.6149C33.5111 18.038 33.1316 15.0817 30.9333 12.8842C29.6444 11.5957 28.3556 10.3072 20.88 10.3072H7.73333V30.9226Z" fill="url(#paint0_linear)"/>
<path d="M95.3778 15.4611V66.9995H86.0978V58.7431C84.4892 61.3406 82.2311 63.3815 79.3234 64.8658C76.4775 66.2883 73.3223 66.9995 69.8578 66.9995C65.8983 66.9995 62.341 66.1955 59.1858 64.5875C56.0306 62.9177 53.525 60.4438 51.669 57.166C49.8748 53.8881 48.9778 49.8991 48.9778 45.1988V15.4199H57.3298V44.0855C57.3298 49.0951 58.598 52.9605 61.1346 55.6817C63.6711 58.3411 67.1356 59.6708 71.5282 59.6708C76.0444 59.6708 79.6018 58.2792 82.2002 55.4962C84.7986 52.7131 86.0978 48.6622 86.0978 43.3434V15.4199L95.3778 15.4611Z" fill="url(#paint1_linear)"/>
<path d="M108.978 24.4185C110.463 21.5117 112.566 19.2543 115.289 17.6463C118.073 16.0383 122.352 15.4611 126.311 15.4611V23.9546H123.177C113.711 23.9546 108.978 29.0879 108.978 39.3543V66.9995H100.533V16.162H108.978V24.4185Z" fill="url(#paint2_linear)"/>
<path d="M131.425 40.5603C131.425 35.3652 132.477 30.8195 134.581 26.9232C136.684 22.9651 139.561 19.9037 143.211 17.7391C146.923 15.5745 151.037 14.4922 155.553 14.4922C160.008 14.4922 163.874 15.4508 167.153 17.368C170.432 19.2852 172.876 21.6972 174.485 24.604V15.3271H183.022V66.9995H174.485V56.7021C172.814 59.6708 170.309 62.1446 166.968 64.1237C163.689 66.0409 159.853 66.9995 155.461 66.9995C150.944 66.9995 146.861 65.8863 143.211 63.6598C139.561 61.4334 136.684 58.3101 134.581 54.2901C132.477 50.2701 131.425 45.6935 131.425 40.5603ZM174.485 40.6531C174.485 36.8186 173.711 33.4789 172.165 30.634C170.618 27.7891 168.515 25.6245 165.854 24.1402C163.256 22.594 160.379 21.8209 157.224 21.8209C154.069 21.8209 151.192 22.5631 148.593 24.0474C145.995 25.5317 143.922 27.6963 142.376 30.5412C140.829 33.3862 140.056 36.7258 140.056 40.5603C140.056 44.4566 140.829 47.8581 142.376 50.7649C143.922 53.6098 145.995 55.8054 148.593 57.3515C151.192 58.8358 154.069 59.578 157.224 59.578C160.379 59.578 163.256 58.8358 165.854 57.3515C168.515 55.8054 170.618 53.6098 172.165 50.7649C173.711 47.8581 174.485 44.4875 174.485 40.6531Z" fill="url(#paint3_linear)"/>
<path d="M195.911 3.19481e-05V67L188.178 67V0L195.911 3.19481e-05Z" fill="url(#paint4_linear)"/>
<path d="M260.151 20.3371C260.151 25.7177 258.295 30.2015 254.583 33.7886C250.933 37.3138 245.334 38.6538 237.786 38.6538H224.267V67C219.111 67 216.533 64.423 216.533 59.2692C216.533 54.1154 216.533 2.57692 216.533 2.57692H237.786C245.086 2.57692 250.623 3.17476 254.397 6.69999C258.233 10.2252 260.151 14.7709 260.151 20.3371ZM237.786 32.1187C242.488 32.1187 245.952 31.0983 248.18 29.0574C250.407 27.0164 251.52 24.1097 251.52 20.3371C251.52 12.3589 246.942 8.36984 237.786 8.36984H225.351V32.1187H237.786Z" fill="url(#paint5_linear)"/>
<path d="M273.244 59.2692H296.444V67H265.511V2.57692H273.244V59.2692Z" fill="url(#paint6_linear)"/>
<path d="M344.206 52.6207H315.994L310.798 67H301.889L325.274 2.71092H335.018L358.311 67H349.402L344.206 52.6207ZM341.793 45.7558L330.1 13.1011L318.407 45.7558H341.793Z" fill="url(#paint7_linear)"/>
<path d="M363.467 34.0669C363.467 27.7586 364.89 22.0997 367.735 17.0901C370.581 12.0188 374.448 8.0606 379.335 5.21568C384.285 2.37076 389.76 0.948301 395.761 0.948301C402.814 0.948301 408.97 2.64907 414.228 6.05061C419.487 9.45214 422.921 14.3689 425.333 20.6154H415.022C413.228 16.7191 411.228 13.6268 407.825 11.524C404.484 9.42122 400.463 8.36983 395.761 8.36983C391.245 8.36983 387.193 9.42122 383.604 11.524C380.016 13.6268 377.201 16.6263 375.159 20.5226C373.118 24.3571 372.097 28.8718 372.097 34.0669C372.097 39.2001 373.118 43.7149 375.159 47.6112C377.201 51.4457 380.016 54.4143 383.604 56.517C387.193 58.6198 391.245 59.6712 395.761 59.6712C400.463 59.6712 404.484 58.6507 407.825 56.6098C411.228 54.507 413.228 52.8578 415.022 48.9615H425.333C422.921 55.1461 419.487 58.5889 414.228 61.9904C408.97 65.3301 402.814 67 395.761 67C389.76 67 384.285 65.6084 379.335 62.8253C374.448 59.9804 370.581 56.0532 367.735 51.0437C364.89 46.0341 363.467 40.3752 363.467 34.0669Z" fill="url(#paint8_linear)"/>
<path d="M438.222 10.3077V30.9231H461.422V36.0769H438.222V59.2692H464V67H430.489V2.57692H464V10.3077H438.222Z" fill="url(#paint9_linear)"/>
<defs>
<linearGradient id="paint0_linear" x1="261.77" y1="-2.57692" x2="261.77" y2="67" gradientUnits="userSpaceOnUse">
<stop stop-color="#81C784"/>
<stop offset="1" stop-color="#388E3C"/>
</linearGradient>
<linearGradient id="paint1_linear" x1="261.77" y1="-2.57692" x2="261.77" y2="67" gradientUnits="userSpaceOnUse">
<stop stop-color="#81C784"/>
<stop offset="1" stop-color="#388E3C"/>
</linearGradient>
<linearGradient id="paint2_linear" x1="261.77" y1="-2.57692" x2="261.77" y2="67" gradientUnits="userSpaceOnUse">
<stop stop-color="#81C784"/>
<stop offset="1" stop-color="#388E3C"/>
</linearGradient>
<linearGradient id="paint3_linear" x1="261.77" y1="-2.57692" x2="261.77" y2="67" gradientUnits="userSpaceOnUse">
<stop stop-color="#81C784"/>
<stop offset="1" stop-color="#388E3C"/>
</linearGradient>
<linearGradient id="paint4_linear" x1="261.77" y1="-2.57692" x2="261.77" y2="67" gradientUnits="userSpaceOnUse">
<stop stop-color="#81C784"/>
<stop offset="1" stop-color="#388E3C"/>
</linearGradient>
<linearGradient id="paint5_linear" x1="261.77" y1="-2.57692" x2="261.77" y2="67" gradientUnits="userSpaceOnUse">
<stop stop-color="#81C784"/>
<stop offset="1" stop-color="#388E3C"/>
</linearGradient>
<linearGradient id="paint6_linear" x1="261.77" y1="-2.57692" x2="261.77" y2="67" gradientUnits="userSpaceOnUse">
<stop stop-color="#81C784"/>
<stop offset="1" stop-color="#388E3C"/>
</linearGradient>
<linearGradient id="paint7_linear" x1="261.77" y1="-2.57692" x2="261.77" y2="67" gradientUnits="userSpaceOnUse">
<stop stop-color="#81C784"/>
<stop offset="1" stop-color="#388E3C"/>
</linearGradient>
<linearGradient id="paint8_linear" x1="261.77" y1="-2.57692" x2="261.77" y2="67" gradientUnits="userSpaceOnUse">
<stop stop-color="#81C784"/>
<stop offset="1" stop-color="#388E3C"/>
</linearGradient>
<linearGradient id="paint9_linear" x1="261.77" y1="-2.57692" x2="261.77" y2="67" gradientUnits="userSpaceOnUse">
<stop stop-color="#81C784"/>
<stop offset="1" stop-color="#388E3C"/>
</linearGradient>
</defs>
</svg>
